# xmcd
#
# Track frame offsets:
#	150
#	58380
#	86822
#	127467
#	144030
#	196195
#	220500
#
# Disc length: 3572 seconds
#
# Revision: 0
# Processed by: cddbd v1.5.1PL0 Copyright (c) Steve Scherf et al.
# Submitted via: dBpowerAMP V4.0
#
DISCID=680df207
DTITLE=Jimi Hendrix - Live At The Fillmore East [CDone)
DYEAR=1969
DGENRE=
TTITLE0=Stone Free
TTITLE1=Power of Soul
TTITLE2=Hear My Train A Comin'
TTITLE3=Izabella
TTITLE4=Machine Gun
TTITLE5=Voodoo Child
TTITLE6=We Gotta Live Together
EXTD=
EXTT0=
EXTT1=
EXTT2=
EXTT3=
EXTT4=
EXTT5=
EXTT6=
PLAYORDER=
